<mxfile host="app.diagrams.net" agent="Mozilla/5.0 (Windows NT 10.0; Win64; x64) AppleWebKit/537.36 (KHTML, like Gecko) Chrome/131.0.0.0 Safari/537.36 OPR/116.0.0.0 (Edition std-1)" version="26.0.16">
  <diagram name="Page-1" id="6OiNLDRtXJ-XwX4tAJ69">
    <mxGraphModel dx="3092" dy="753" grid="1" gridSize="10" guides="1" tooltips="1" connect="1" arrows="1" fold="1" page="1" pageScale="1" pageWidth="850" pageHeight="1100" math="0" shadow="0">
      <root>
        <mxCell id="0" />
        <mxCell id="1" parent="0" />
        <mxCell id="V0E_rNhxR0BCft7JuIcc-1" value="" style="rounded=0;whiteSpace=wrap;html=1;fillColor=#f5f5f5;fontColor=#333333;strokeColor=#666666;" vertex="1" parent="1">
          <mxGeometry x="-1637.5" y="50" width="1200" height="690" as="geometry" />
        </mxCell>
        <mxCell id="NPlb_PadJ-hofh01fYWX-1" value="High Level Architecture" style="text;strokeColor=none;fillColor=none;html=1;fontSize=24;fontStyle=1;verticalAlign=middle;align=center;" parent="1" vertex="1">
          <mxGeometry x="-1637.5" y="60" width="340" height="40" as="geometry" />
        </mxCell>
        <mxCell id="NPlb_PadJ-hofh01fYWX-3" value="" style="rounded=0;whiteSpace=wrap;html=1;fillColor=none;dashed=1;" parent="1" vertex="1">
          <mxGeometry x="-1600" y="220" width="200" height="490" as="geometry" />
        </mxCell>
        <mxCell id="NPlb_PadJ-hofh01fYWX-5" value="Sources" style="text;strokeColor=none;fillColor=default;html=1;fontSize=24;fontStyle=0;verticalAlign=middle;align=center;" parent="1" vertex="1">
          <mxGeometry x="-1550" y="200" width="100" height="40" as="geometry" />
        </mxCell>
        <mxCell id="NPlb_PadJ-hofh01fYWX-6" value="" style="rounded=0;whiteSpace=wrap;html=1;fillColor=none;dashed=1;" parent="1" vertex="1">
          <mxGeometry x="-1350" y="220" width="600" height="490" as="geometry" />
        </mxCell>
        <mxCell id="NPlb_PadJ-hofh01fYWX-7" value="Data Warehouse" style="text;strokeColor=none;fillColor=default;html=1;fontSize=24;fontStyle=0;verticalAlign=middle;align=center;" parent="1" vertex="1">
          <mxGeometry x="-1160" y="195" width="220" height="45" as="geometry" />
        </mxCell>
        <mxCell id="NPlb_PadJ-hofh01fYWX-8" value="" style="rounded=0;whiteSpace=wrap;html=1;fillColor=none;dashed=1;" parent="1" vertex="1">
          <mxGeometry x="-690" y="215" width="200" height="495" as="geometry" />
        </mxCell>
        <mxCell id="NPlb_PadJ-hofh01fYWX-9" value="Consume" style="text;strokeColor=none;fillColor=default;html=1;fontSize=24;fontStyle=0;verticalAlign=middle;align=center;" parent="1" vertex="1">
          <mxGeometry x="-640" y="195" width="100" height="40" as="geometry" />
        </mxCell>
        <mxCell id="NPlb_PadJ-hofh01fYWX-10" value="Bronze Layer" style="rounded=0;whiteSpace=wrap;html=1;fillColor=#ffe6cc;strokeColor=#d79b00;fontStyle=1" parent="1" vertex="1">
          <mxGeometry x="-1335" y="250" width="135" height="20" as="geometry" />
        </mxCell>
        <mxCell id="NPlb_PadJ-hofh01fYWX-13" value="" style="rounded=0;whiteSpace=wrap;html=1;fillColor=none;strokeColor=#d79b00;" parent="1" vertex="1">
          <mxGeometry x="-1335" y="280" width="135" height="410" as="geometry" />
        </mxCell>
        <mxCell id="NPlb_PadJ-hofh01fYWX-15" value="Silver Layer" style="rounded=0;whiteSpace=wrap;html=1;fillColor=#f5f5f5;strokeColor=#666666;fontColor=#333333;fontStyle=1" parent="1" vertex="1">
          <mxGeometry x="-1130" y="250" width="135" height="20" as="geometry" />
        </mxCell>
        <mxCell id="NPlb_PadJ-hofh01fYWX-16" value="" style="rounded=0;whiteSpace=wrap;html=1;fillColor=none;strokeColor=#666666;fontColor=#333333;" parent="1" vertex="1">
          <mxGeometry x="-1130" y="280" width="135" height="410" as="geometry" />
        </mxCell>
        <mxCell id="NPlb_PadJ-hofh01fYWX-17" value="Gold Layer" style="rounded=0;whiteSpace=wrap;html=1;fillColor=#fff2cc;strokeColor=#d6b656;fontStyle=1" parent="1" vertex="1">
          <mxGeometry x="-940" y="250" width="135" height="20" as="geometry" />
        </mxCell>
        <mxCell id="NPlb_PadJ-hofh01fYWX-18" value="" style="rounded=0;whiteSpace=wrap;html=1;fillColor=none;strokeColor=#d6b656;" parent="1" vertex="1">
          <mxGeometry x="-940" y="280" width="135" height="410" as="geometry" />
        </mxCell>
        <mxCell id="NPlb_PadJ-hofh01fYWX-19" value="&lt;div&gt;&lt;br&gt;&lt;/div&gt;CRM" style="image;aspect=fixed;html=1;points=[];align=center;fontSize=12;image=img/lib/azure2/general/Folder_Blank.svg;" parent="1" vertex="1">
          <mxGeometry x="-1524.64" y="310" width="49.29" height="40" as="geometry" />
        </mxCell>
        <mxCell id="NPlb_PadJ-hofh01fYWX-21" value="" style="image;aspect=fixed;html=1;points=[];align=center;fontSize=12;image=img/lib/azure2/general/File.svg;" parent="1" vertex="1">
          <mxGeometry x="-1490" y="330" width="24.35" height="30" as="geometry" />
        </mxCell>
        <mxCell id="NPlb_PadJ-hofh01fYWX-23" value="&lt;div&gt;&lt;br&gt;&lt;/div&gt;ERP" style="image;aspect=fixed;html=1;points=[];align=center;fontSize=12;image=img/lib/azure2/general/Folder_Blank.svg;" parent="1" vertex="1">
          <mxGeometry x="-1519.49" y="435" width="49.29" height="40" as="geometry" />
        </mxCell>
        <mxCell id="NPlb_PadJ-hofh01fYWX-24" value="" style="image;aspect=fixed;html=1;points=[];align=center;fontSize=12;image=img/lib/azure2/general/File.svg;" parent="1" vertex="1">
          <mxGeometry x="-1484.85" y="455" width="24.35" height="30" as="geometry" />
        </mxCell>
        <mxCell id="NPlb_PadJ-hofh01fYWX-29" value="&lt;div&gt;&lt;b&gt;Object Type&lt;/b&gt;&amp;nbsp;&lt;span style=&quot;color: light-dark(rgb(0, 0, 0), rgb(255, 255, 255)); background-color: transparent;&quot;&gt;: CSV File&lt;/span&gt;&lt;div&gt;&lt;br&gt;&lt;div&gt;&lt;span style=&quot;background-color: transparent; color: light-dark(rgb(0, 0, 0), rgb(255, 255, 255));&quot;&gt;&lt;b&gt;Interface &lt;/b&gt;: Files in Folder&lt;/span&gt;&lt;/div&gt;&lt;/div&gt;&lt;/div&gt;" style="text;html=1;align=center;verticalAlign=middle;whiteSpace=wrap;rounded=0;" parent="1" vertex="1">
          <mxGeometry x="-1590" y="550" width="180" height="70" as="geometry" />
        </mxCell>
        <mxCell id="NPlb_PadJ-hofh01fYWX-30" value="" style="html=1;verticalLabelPosition=bottom;align=center;labelBackgroundColor=#ffffff;verticalAlign=top;strokeWidth=2;strokeColor=#d79b00;shadow=0;dashed=0;shape=mxgraph.ios7.icons.data;fillColor=#ffe6cc;" parent="1" vertex="1">
          <mxGeometry x="-1286" y="305" width="37" height="50" as="geometry" />
        </mxCell>
        <mxCell id="NPlb_PadJ-hofh01fYWX-31" value="" style="html=1;verticalLabelPosition=bottom;align=center;labelBackgroundColor=#ffffff;verticalAlign=top;strokeWidth=2;strokeColor=#666666;shadow=0;dashed=0;shape=mxgraph.ios7.icons.data;fillColor=#f5f5f5;fontColor=#333333;" parent="1" vertex="1">
          <mxGeometry x="-1081" y="305" width="37" height="50" as="geometry" />
        </mxCell>
        <mxCell id="NPlb_PadJ-hofh01fYWX-32" value="" style="html=1;verticalLabelPosition=bottom;align=center;labelBackgroundColor=#ffffff;verticalAlign=top;strokeWidth=2;strokeColor=#d6b656;shadow=0;dashed=0;shape=mxgraph.ios7.icons.data;fillColor=#fff2cc;" parent="1" vertex="1">
          <mxGeometry x="-888.5" y="305" width="37" height="50" as="geometry" />
        </mxCell>
        <mxCell id="NPlb_PadJ-hofh01fYWX-33" value="" style="shape=singleArrow;whiteSpace=wrap;html=1;" parent="1" vertex="1">
          <mxGeometry x="-1420" y="380" width="100" height="60" as="geometry" />
        </mxCell>
        <mxCell id="NPlb_PadJ-hofh01fYWX-34" value="" style="shape=singleArrow;whiteSpace=wrap;html=1;" parent="1" vertex="1">
          <mxGeometry x="-1210" y="380" width="100" height="60" as="geometry" />
        </mxCell>
        <mxCell id="NPlb_PadJ-hofh01fYWX-35" value="" style="shape=singleArrow;whiteSpace=wrap;html=1;" parent="1" vertex="1">
          <mxGeometry x="-1020" y="380" width="100" height="60" as="geometry" />
        </mxCell>
        <mxCell id="NPlb_PadJ-hofh01fYWX-36" value="" style="shape=singleArrow;whiteSpace=wrap;html=1;" parent="1" vertex="1">
          <mxGeometry x="-770" y="370" width="100" height="60" as="geometry" />
        </mxCell>
        <mxCell id="NPlb_PadJ-hofh01fYWX-37" value="Raw Data" style="text;html=1;align=center;verticalAlign=middle;whiteSpace=wrap;rounded=0;fontStyle=0;fontSize=14;" parent="1" vertex="1">
          <mxGeometry x="-1297.5" y="370" width="60" height="30" as="geometry" />
        </mxCell>
        <mxCell id="NPlb_PadJ-hofh01fYWX-38" value="Cleaned, Standardized Data" style="text;html=1;align=center;verticalAlign=middle;whiteSpace=wrap;rounded=0;fontStyle=0;fontSize=14;" parent="1" vertex="1">
          <mxGeometry x="-1117.5" y="380" width="110" height="30" as="geometry" />
        </mxCell>
        <mxCell id="NPlb_PadJ-hofh01fYWX-39" value="Business Ready Data" style="text;html=1;align=center;verticalAlign=middle;whiteSpace=wrap;rounded=0;fontStyle=0;fontSize=14;" parent="1" vertex="1">
          <mxGeometry x="-922.5" y="370" width="100" height="30" as="geometry" />
        </mxCell>
        <mxCell id="NPlb_PadJ-hofh01fYWX-40" value="" style="endArrow=none;html=1;rounded=0;" parent="1" edge="1">
          <mxGeometry width="50" height="50" relative="1" as="geometry">
            <mxPoint x="-1320" y="454" as="sourcePoint" />
            <mxPoint x="-1210" y="454" as="targetPoint" />
          </mxGeometry>
        </mxCell>
        <mxCell id="NPlb_PadJ-hofh01fYWX-41" value="" style="endArrow=none;html=1;rounded=0;" parent="1" edge="1">
          <mxGeometry width="50" height="50" relative="1" as="geometry">
            <mxPoint x="-927.5" y="455" as="sourcePoint" />
            <mxPoint x="-817.5" y="455" as="targetPoint" />
          </mxGeometry>
        </mxCell>
        <mxCell id="NPlb_PadJ-hofh01fYWX-42" value="" style="endArrow=none;html=1;rounded=0;" parent="1" edge="1">
          <mxGeometry width="50" height="50" relative="1" as="geometry">
            <mxPoint x="-1117.5" y="455" as="sourcePoint" />
            <mxPoint x="-1007.5" y="455" as="targetPoint" />
          </mxGeometry>
        </mxCell>
        <mxCell id="NPlb_PadJ-hofh01fYWX-44" value="&lt;b&gt;Object Type&amp;nbsp;&lt;/b&gt;&lt;span style=&quot;background-color: transparent; color: light-dark(rgb(0, 0, 0), rgb(255, 255, 255));&quot;&gt;&lt;b&gt;:&lt;/b&gt; Table&lt;/span&gt;&lt;div&gt;&lt;div&gt;&lt;br&gt;&lt;/div&gt;&lt;/div&gt;&lt;div&gt;&lt;b&gt;Load &lt;/b&gt;: Batch Processing, Full Load&lt;/div&gt;&lt;div&gt;&lt;br&gt;&lt;/div&gt;&lt;div&gt;No &lt;b&gt;Transformations&lt;/b&gt;&lt;/div&gt;&lt;div&gt;&lt;br&gt;&lt;/div&gt;&lt;div&gt;&lt;b&gt;Data Model&lt;/b&gt;: None&lt;/div&gt;" style="text;html=1;align=center;verticalAlign=middle;whiteSpace=wrap;rounded=0;" parent="1" vertex="1">
          <mxGeometry x="-1330" y="490" width="130" height="60" as="geometry" />
        </mxCell>
        <mxCell id="NPlb_PadJ-hofh01fYWX-50" value="&lt;b&gt;Object Type&amp;nbsp;&lt;/b&gt;&lt;span style=&quot;background-color: transparent; color: light-dark(rgb(0, 0, 0), rgb(255, 255, 255));&quot;&gt;&lt;b&gt;:&lt;/b&gt; Table&lt;/span&gt;&lt;div&gt;&lt;div&gt;&lt;br&gt;&lt;/div&gt;&lt;/div&gt;&lt;div&gt;&lt;b&gt;Load &lt;/b&gt;: Batch Processing, Full Load, Truncate &amp;amp; Load&lt;/div&gt;&lt;div&gt;&lt;br&gt;&lt;/div&gt;&lt;div&gt;&lt;b&gt;Transformations:&lt;/b&gt;&lt;/div&gt;&lt;div&gt;Data Cleaning, Standardization, Normalization, Derived Columns, Data Enrichment&lt;b&gt;&amp;nbsp;&lt;/b&gt;&lt;/div&gt;&lt;div&gt;&lt;br&gt;&lt;/div&gt;&lt;div&gt;&lt;b&gt;Data Model&lt;/b&gt;: None&lt;/div&gt;" style="text;html=1;align=center;verticalAlign=middle;whiteSpace=wrap;rounded=0;" parent="1" vertex="1">
          <mxGeometry x="-1127.5" y="540" width="130" height="50" as="geometry" />
        </mxCell>
        <mxCell id="NPlb_PadJ-hofh01fYWX-52" value="" style="endArrow=none;html=1;rounded=0;entryX=0.917;entryY=0;entryDx=0;entryDy=0;entryPerimeter=0;" parent="1" edge="1">
          <mxGeometry width="50" height="50" relative="1" as="geometry">
            <mxPoint x="-1581.35" y="549" as="sourcePoint" />
            <mxPoint x="-1420.94" y="550" as="targetPoint" />
          </mxGeometry>
        </mxCell>
        <mxCell id="NPlb_PadJ-hofh01fYWX-54" value="&lt;b&gt;Object Type&amp;nbsp;&lt;/b&gt;&lt;span style=&quot;background-color: transparent; color: light-dark(rgb(0, 0, 0), rgb(255, 255, 255));&quot;&gt;&lt;b&gt;:&lt;/b&gt; Views&lt;/span&gt;&lt;div&gt;&lt;div&gt;&lt;br&gt;&lt;/div&gt;&lt;/div&gt;&lt;div&gt;No &lt;b&gt;Load&lt;/b&gt;&lt;/div&gt;&lt;div&gt;&lt;br&gt;&lt;/div&gt;&lt;div&gt;&lt;b&gt;Transformations:&lt;/b&gt;&lt;/div&gt;&lt;div&gt;Data Integrations,&amp;nbsp;&lt;/div&gt;&lt;div&gt;Aggregations, Business Logics&lt;/div&gt;&lt;div&gt;&lt;br&gt;&lt;/div&gt;&lt;div&gt;&lt;b&gt;Data Model&lt;/b&gt;:&amp;nbsp;&lt;/div&gt;&lt;div&gt;Star Schema&lt;/div&gt;&lt;div&gt;Flat Table&lt;/div&gt;&lt;div&gt;Aggregated Table&lt;/div&gt;" style="text;html=1;align=center;verticalAlign=middle;whiteSpace=wrap;rounded=0;" parent="1" vertex="1">
          <mxGeometry x="-935" y="530" width="130" height="60" as="geometry" />
        </mxCell>
        <mxCell id="NPlb_PadJ-hofh01fYWX-55" value="BI &amp;amp; Reporting" style="image;aspect=fixed;html=1;points=[];align=center;fontSize=12;image=img/lib/azure2/analytics/Power_BI_Embedded.svg;" parent="1" vertex="1">
          <mxGeometry x="-615.5" y="262" width="51" height="68" as="geometry" />
        </mxCell>
        <mxCell id="NPlb_PadJ-hofh01fYWX-57" value="Ad-Hoc SQL Queries" style="sketch=0;html=1;aspect=fixed;strokeColor=none;shadow=0;fillColor=#3B8DF1;verticalAlign=top;labelPosition=center;verticalLabelPosition=bottom;shape=mxgraph.gcp2.big_query" parent="1" vertex="1">
          <mxGeometry x="-619.7" y="400" width="59.4" height="60" as="geometry" />
        </mxCell>
        <mxCell id="NPlb_PadJ-hofh01fYWX-58" value="&lt;div&gt;&lt;br&gt;&lt;/div&gt;&lt;div&gt;&lt;br&gt;&lt;/div&gt;&lt;div&gt;&lt;br&gt;&lt;/div&gt;&lt;div&gt;&lt;br&gt;&lt;/div&gt;&lt;div&gt;&lt;br&gt;&lt;/div&gt;&lt;div&gt;&lt;br&gt;&lt;/div&gt;&lt;div&gt;&lt;br&gt;&lt;/div&gt;&lt;div&gt;Machine Learning&lt;/div&gt;" style="points=[];aspect=fixed;html=1;align=center;shadow=0;dashed=0;fillColor=#FF6A00;strokeColor=none;shape=mxgraph.alibaba_cloud.machine_learning;" parent="1" vertex="1">
          <mxGeometry x="-614.9" y="540" width="49.8" height="50.099999999999994" as="geometry" />
        </mxCell>
        <mxCell id="NPlb_PadJ-hofh01fYWX-59" value="" style="sketch=0;outlineConnect=0;fontColor=#232F3E;gradientColor=none;fillColor=#C925D1;strokeColor=none;dashed=0;verticalLabelPosition=bottom;verticalAlign=top;align=center;html=1;fontSize=12;fontStyle=0;aspect=fixed;pointerEvents=1;shape=mxgraph.aws4.rds_sql_server_instance;" parent="1" vertex="1">
          <mxGeometry x="-1340" y="140" width="70" height="70" as="geometry" />
        </mxCell>
      </root>
    </mxGraphModel>
  </diagram>
</mxfile>
